<svg width="334" height="334" viewBox="0 0 334 334" fill="none" xmlns="http://www.w3.org/2000/svg">
<rect x="2.40306" y="2.15501" width="329.69" height="329.69" rx="9.22493" fill="white"/>
<g filter="url(#filter0_d_42_316)">
<ellipse rx="5.23162" ry="5.1503" transform="matrix(1 0 0 -1 289.802 78.8077)" fill="#F9C595"/>
<path d="M294.773 77.7776L289.672 49.5797L284.833 77.7776H294.773Z" fill="#F9C595" stroke="#F9C595" stroke-width="1.84499"/>
</g>
<g filter="url(#filter1_d_42_316)">
<ellipse rx="5.21141" ry="5.17075" transform="matrix(0.869384 0.494137 0.505886 -0.8626 274.715 74.8924)" fill="#FCE6D2"/>
<path d="M279.544 76.4465L289.448 49.5156L270.936 71.5537L279.544 76.4465Z" fill="#FCE6D2" stroke="#FCE6D2" stroke-width="1.84499"/>
</g>
<g filter="url(#filter2_d_42_316)">
<ellipse rx="5.17075" ry="5.21141" transform="matrix(0.505886 -0.8626 0.869384 0.494137 263.726 33.954)" fill="#F6A459"/>
<path d="M267.119 30.2313L289.375 48.679L262.149 38.7058L267.119 30.2313Z" fill="#F6A459" stroke="#F6A459" stroke-width="1.84499"/>
</g>
<g filter="url(#filter3_d_42_316)">
<ellipse cx="259.46" cy="48.8067" rx="5.1503" ry="5.23162" transform="rotate(-90 259.46 48.8067)" fill="#F7B577"/>
<path d="M260.506 43.9141L289.149 48.9357L260.506 53.6997V43.9141Z" fill="#F7B577" stroke="#F7B577" stroke-width="1.84499"/>
</g>
<g filter="url(#filter4_d_42_316)">
<ellipse rx="5.17075" ry="5.21141" transform="matrix(-0.505886 -0.8626 0.869384 -0.494137 263.466 63.7614)" fill="#F9C595"/>
<path d="M261.886 59.0091L289.242 49.2589L266.856 67.4836L261.886 59.0091Z" fill="#F9C595" stroke="#F9C595" stroke-width="1.84499"/>
</g>
<g filter="url(#filter5_d_42_316)">
<ellipse rx="5.21141" ry="5.17075" transform="matrix(-0.869384 0.494137 0.505886 0.8626 274.713 23.138)" fill="#F4943B"/>
<path d="M270.934 26.4763L289.673 48.3856L279.542 21.5835L270.934 26.4763Z" fill="#F4943B" stroke="#F4943B" stroke-width="1.84499"/>
</g>
<g filter="url(#filter6_d_42_316)">
<ellipse rx="5.23162" ry="5.1503" transform="matrix(-1 0 0 1 289.803 19.1928)" fill="#F2831D"/>
<path d="M284.829 20.2229L289.93 48.4208L294.77 20.2229H284.829Z" fill="#F2831D" stroke="#F2831D" stroke-width="1.84499"/>
</g>
<g filter="url(#filter7_d_42_316)">
<ellipse rx="5.21141" ry="5.17075" transform="matrix(-0.869384 -0.494137 -0.505886 0.8626 304.729 23.1388)" fill="#50597C"/>
<path d="M299.9 21.5845L289.996 48.5154L308.509 26.4773L299.9 21.5845Z" fill="#50597C" stroke="#50597C" stroke-width="1.84499"/>
</g>
<g filter="url(#filter8_d_42_316)">
<ellipse rx="5.17075" ry="5.21141" transform="matrix(-0.505886 -0.8626 -0.869384 0.494137 315.775 33.954)" fill="#F2831D"/>
<path d="M312.382 30.2313L290.126 48.679L317.352 38.7058L312.382 30.2313Z" fill="#F2831D" stroke="#F2831D" stroke-width="1.84499"/>
</g>
<g filter="url(#filter9_d_42_316)">
<ellipse cx="320.016" cy="49.0651" rx="5.1503" ry="5.23162" transform="rotate(90 320.016 49.0651)" fill="#F4943B"/>
<path d="M318.971 53.9577L290.328 48.9361L318.971 44.1721V53.9577Z" fill="#F4943B" stroke="#F4943B" stroke-width="1.84499"/>
</g>
<g filter="url(#filter10_d_42_316)">
<ellipse rx="5.16148" ry="5.21141" transform="matrix(0.505886 -0.8626 -0.869384 -0.494137 316.042 63.7531)" fill="#F6A459"/>
<path d="M317.617 59.0087L290.266 49.2507L312.656 67.468L317.617 59.0087Z" fill="#F6A459" stroke="#F6A459" stroke-width="1.84499"/>
</g>
<g filter="url(#filter11_d_42_316)">
<ellipse rx="5.21141" ry="5.17075" transform="matrix(0.869384 -0.494137 -0.505886 -0.8626 304.993 74.6342)" fill="#F7B577"/>
<path d="M308.772 71.2959L290.033 49.3866L300.164 76.1887L308.772 71.2959Z" fill="#F7B577" stroke="#F7B577" stroke-width="1.84499"/>
</g>
<path d="M77.4571 286.611C65.9641 286.611 55.5731 284.643 46.2842 280.707C37.1528 276.771 29.9106 271.103 24.5577 263.703C19.2047 256.304 16.4496 247.566 16.2921 237.49H51.7159C52.1882 244.26 54.5498 249.613 58.8006 253.548C63.2089 257.484 69.1916 259.452 76.7486 259.452C84.4631 259.452 90.5245 257.642 94.9328 254.021C99.3411 250.242 101.545 245.362 101.545 239.379C101.545 234.498 100.05 230.484 97.0582 227.335C94.0669 224.186 90.2884 221.746 85.7226 220.014C81.3144 218.125 75.1742 216.078 67.3023 213.874C56.5965 210.725 47.8586 207.655 41.0887 204.664C34.4763 201.515 28.7298 196.87 23.8492 190.73C19.126 184.433 16.7644 176.089 16.7644 165.698C16.7644 155.936 19.2047 147.435 24.0853 140.193C28.9659 132.95 35.8145 127.44 44.6311 123.661C53.4477 119.725 63.5238 117.757 74.8594 117.757C91.8628 117.757 105.639 121.93 116.187 130.274C126.893 138.461 132.797 149.954 133.899 164.753H97.5306C97.2157 159.085 94.7754 154.441 90.2096 150.82C85.8014 147.041 79.8974 145.152 72.4978 145.152C66.0428 145.152 60.8473 146.805 56.9113 150.111C53.1328 153.417 51.2435 158.219 51.2435 164.517C51.2435 168.925 52.6605 172.625 55.4944 175.616C58.4857 178.45 62.1068 180.812 66.3577 182.701C70.766 184.433 76.9061 186.48 84.778 188.841C95.4838 191.99 104.222 195.139 110.992 198.287C117.761 201.436 123.587 206.159 128.467 212.457C133.348 218.754 135.788 227.02 135.788 237.254C135.788 246.07 133.505 254.257 128.94 261.814C124.374 269.371 117.683 275.432 108.866 279.998C100.05 284.406 89.5799 286.611 77.4571 286.611ZM156.423 202.302C156.423 186.086 160.044 171.602 167.286 158.849C174.685 145.939 184.683 135.942 197.278 128.857C210.03 121.615 224.279 117.994 240.023 117.994C258.443 117.994 274.58 122.717 288.435 132.163C302.29 141.609 311.972 154.677 317.482 171.365H279.461C275.682 163.493 270.329 157.59 263.402 153.654C256.632 149.718 248.76 147.75 239.786 147.75C230.183 147.75 221.602 150.032 214.045 154.598C206.645 159.006 200.82 165.304 196.569 173.491C192.476 181.678 190.429 191.281 190.429 202.302C190.429 213.165 192.476 222.769 196.569 231.113C200.82 239.3 206.645 245.677 214.045 250.242C221.602 254.651 230.183 256.855 239.786 256.855C248.76 256.855 256.632 254.887 263.402 250.951C270.329 246.857 275.682 240.875 279.461 233.003H317.482C311.972 249.849 302.29 262.995 288.435 272.441C274.738 281.73 258.6 286.374 240.023 286.374C224.279 286.374 210.03 282.832 197.278 275.747C184.683 268.505 174.685 258.508 167.286 245.755C160.044 233.003 156.423 218.518 156.423 202.302Z" fill="#50597C"/>
<rect x="2.40306" y="2.15501" width="329.69" height="329.69" rx="9.22493" stroke="#50597C" stroke-width="3.68997"/>
<defs>
<filter id="filter0_d_42_316" x="276.358" y="49.4155" width="26.8986" height="49.3024" filterUnits="userSpaceOnUse" color-interpolation-filters="sRGB">
<feFlood flood-opacity="0" result="BackgroundImageFix"/>
<feColorMatrix in="SourceAlpha" type="matrix" values="0 0 0 0 0 0 0 0 0 0 0 0 0 0 0 0 0 0 127 0" result="hardAlpha"/>
<feOffset dy="7.37994"/>
<feGaussianBlur stdDeviation="3.68997"/>
<feComposite in2="hardAlpha" operator="out"/>
<feColorMatrix type="matrix" values="0 0 0 0 0 0 0 0 0 0 0 0 0 0 0 0 0 0 0.25 0"/>
<feBlend mode="normal" in2="BackgroundImageFix" result="effect1_dropShadow_42_316"/>
<feBlend mode="normal" in="SourceGraphic" in2="effect1_dropShadow_42_316" result="shape"/>
</filter>
<filter id="filter1_d_42_316" x="262.102" y="48.9326" width="35.5978" height="45.871" filterUnits="userSpaceOnUse" color-interpolation-filters="sRGB">
<feFlood flood-opacity="0" result="BackgroundImageFix"/>
<feColorMatrix in="SourceAlpha" type="matrix" values="0 0 0 0 0 0 0 0 0 0 0 0 0 0 0 0 0 0 127 0" result="hardAlpha"/>
<feOffset dy="7.37994"/>
<feGaussianBlur stdDeviation="3.68997"/>
<feComposite in2="hardAlpha" operator="out"/>
<feColorMatrix type="matrix" values="0 0 0 0 0 0 0 0 0 0 0 0 0 0 0 0 0 0 0.25 0"/>
<feBlend mode="normal" in2="BackgroundImageFix" result="effect1_dropShadow_42_316"/>
<feBlend mode="normal" in="SourceGraphic" in2="effect1_dropShadow_42_316" result="shape"/>
</filter>
<filter id="filter2_d_42_316" x="251.113" y="28.8027" width="46.2404" height="35.4962" filterUnits="userSpaceOnUse" color-interpolation-filters="sRGB">
<feFlood flood-opacity="0" result="BackgroundImageFix"/>
<feColorMatrix in="SourceAlpha" type="matrix" values="0 0 0 0 0 0 0 0 0 0 0 0 0 0 0 0 0 0 127 0" result="hardAlpha"/>
<feOffset dy="7.37994"/>
<feGaussianBlur stdDeviation="3.68997"/>
<feComposite in2="hardAlpha" operator="out"/>
<feColorMatrix type="matrix" values="0 0 0 0 0 0 0 0 0 0 0 0 0 0 0 0 0 0 0.25 0"/>
<feBlend mode="normal" in2="BackgroundImageFix" result="effect1_dropShadow_42_316"/>
<feBlend mode="normal" in="SourceGraphic" in2="effect1_dropShadow_42_316" result="shape"/>
</filter>
<filter id="filter3_d_42_316" x="246.849" y="42.8159" width="49.84" height="26.7323" filterUnits="userSpaceOnUse" color-interpolation-filters="sRGB">
<feFlood flood-opacity="0" result="BackgroundImageFix"/>
<feColorMatrix in="SourceAlpha" type="matrix" values="0 0 0 0 0 0 0 0 0 0 0 0 0 0 0 0 0 0 127 0" result="hardAlpha"/>
<feOffset dy="7.37994"/>
<feGaussianBlur stdDeviation="3.68997"/>
<feComposite in2="hardAlpha" operator="out"/>
<feColorMatrix type="matrix" values="0 0 0 0 0 0 0 0 0 0 0 0 0 0 0 0 0 0 0.25 0"/>
<feBlend mode="normal" in2="BackgroundImageFix" result="effect1_dropShadow_42_316"/>
<feBlend mode="normal" in="SourceGraphic" in2="effect1_dropShadow_42_316" result="shape"/>
</filter>
<filter id="filter4_d_42_316" x="250.853" y="48.396" width="46.3615" height="35.2765" filterUnits="userSpaceOnUse" color-interpolation-filters="sRGB">
<feFlood flood-opacity="0" result="BackgroundImageFix"/>
<feColorMatrix in="SourceAlpha" type="matrix" values="0 0 0 0 0 0 0 0 0 0 0 0 0 0 0 0 0 0 127 0" result="hardAlpha"/>
<feOffset dy="7.37994"/>
<feGaussianBlur stdDeviation="3.68997"/>
<feComposite in2="hardAlpha" operator="out"/>
<feColorMatrix type="matrix" values="0 0 0 0 0 0 0 0 0 0 0 0 0 0 0 0 0 0 0.25 0"/>
<feBlend mode="normal" in2="BackgroundImageFix" result="effect1_dropShadow_42_316"/>
<feBlend mode="normal" in="SourceGraphic" in2="effect1_dropShadow_42_316" result="shape"/>
</filter>
<filter id="filter5_d_42_316" x="262.101" y="17.9868" width="35.8214" height="45.7479" filterUnits="userSpaceOnUse" color-interpolation-filters="sRGB">
<feFlood flood-opacity="0" result="BackgroundImageFix"/>
<feColorMatrix in="SourceAlpha" type="matrix" values="0 0 0 0 0 0 0 0 0 0 0 0 0 0 0 0 0 0 127 0" result="hardAlpha"/>
<feOffset dy="7.37994"/>
<feGaussianBlur stdDeviation="3.68997"/>
<feComposite in2="hardAlpha" operator="out"/>
<feColorMatrix type="matrix" values="0 0 0 0 0 0 0 0 0 0 0 0 0 0 0 0 0 0 0.25 0"/>
<feBlend mode="normal" in2="BackgroundImageFix" result="effect1_dropShadow_42_316"/>
<feBlend mode="normal" in="SourceGraphic" in2="effect1_dropShadow_42_316" result="shape"/>
</filter>
<filter id="filter6_d_42_316" x="276.346" y="14.0425" width="26.8986" height="49.3024" filterUnits="userSpaceOnUse" color-interpolation-filters="sRGB">
<feFlood flood-opacity="0" result="BackgroundImageFix"/>
<feColorMatrix in="SourceAlpha" type="matrix" values="0 0 0 0 0 0 0 0 0 0 0 0 0 0 0 0 0 0 127 0" result="hardAlpha"/>
<feOffset dy="7.37994"/>
<feGaussianBlur stdDeviation="3.68997"/>
<feComposite in2="hardAlpha" operator="out"/>
<feColorMatrix type="matrix" values="0 0 0 0 0 0 0 0 0 0 0 0 0 0 0 0 0 0 0.25 0"/>
<feBlend mode="normal" in2="BackgroundImageFix" result="effect1_dropShadow_42_316"/>
<feBlend mode="normal" in="SourceGraphic" in2="effect1_dropShadow_42_316" result="shape"/>
</filter>
<filter id="filter7_d_42_316" x="281.744" y="17.9875" width="35.5978" height="45.8707" filterUnits="userSpaceOnUse" color-interpolation-filters="sRGB">
<feFlood flood-opacity="0" result="BackgroundImageFix"/>
<feColorMatrix in="SourceAlpha" type="matrix" values="0 0 0 0 0 0 0 0 0 0 0 0 0 0 0 0 0 0 127 0" result="hardAlpha"/>
<feOffset dy="7.37994"/>
<feGaussianBlur stdDeviation="3.68997"/>
<feComposite in2="hardAlpha" operator="out"/>
<feColorMatrix type="matrix" values="0 0 0 0 0 0 0 0 0 0 0 0 0 0 0 0 0 0 0.25 0"/>
<feBlend mode="normal" in2="BackgroundImageFix" result="effect1_dropShadow_42_316"/>
<feBlend mode="normal" in="SourceGraphic" in2="effect1_dropShadow_42_316" result="shape"/>
</filter>
<filter id="filter8_d_42_316" x="282.147" y="28.8027" width="46.2404" height="35.4962" filterUnits="userSpaceOnUse" color-interpolation-filters="sRGB">
<feFlood flood-opacity="0" result="BackgroundImageFix"/>
<feColorMatrix in="SourceAlpha" type="matrix" values="0 0 0 0 0 0 0 0 0 0 0 0 0 0 0 0 0 0 127 0" result="hardAlpha"/>
<feOffset dy="7.37994"/>
<feGaussianBlur stdDeviation="3.68997"/>
<feComposite in2="hardAlpha" operator="out"/>
<feColorMatrix type="matrix" values="0 0 0 0 0 0 0 0 0 0 0 0 0 0 0 0 0 0 0.25 0"/>
<feBlend mode="normal" in2="BackgroundImageFix" result="effect1_dropShadow_42_316"/>
<feBlend mode="normal" in="SourceGraphic" in2="effect1_dropShadow_42_316" result="shape"/>
</filter>
<filter id="filter9_d_42_316" x="282.788" y="43.0835" width="49.84" height="26.7323" filterUnits="userSpaceOnUse" color-interpolation-filters="sRGB">
<feFlood flood-opacity="0" result="BackgroundImageFix"/>
<feColorMatrix in="SourceAlpha" type="matrix" values="0 0 0 0 0 0 0 0 0 0 0 0 0 0 0 0 0 0 127 0" result="hardAlpha"/>
<feOffset dy="7.37994"/>
<feGaussianBlur stdDeviation="3.68997"/>
<feComposite in2="hardAlpha" operator="out"/>
<feColorMatrix type="matrix" values="0 0 0 0 0 0 0 0 0 0 0 0 0 0 0 0 0 0 0.25 0"/>
<feBlend mode="normal" in2="BackgroundImageFix" result="effect1_dropShadow_42_316"/>
<feBlend mode="normal" in="SourceGraphic" in2="effect1_dropShadow_42_316" result="shape"/>
</filter>
<filter id="filter10_d_42_316" x="282.293" y="48.3879" width="46.3595" height="35.2692" filterUnits="userSpaceOnUse" color-interpolation-filters="sRGB">
<feFlood flood-opacity="0" result="BackgroundImageFix"/>
<feColorMatrix in="SourceAlpha" type="matrix" values="0 0 0 0 0 0 0 0 0 0 0 0 0 0 0 0 0 0 127 0" result="hardAlpha"/>
<feOffset dy="7.37994"/>
<feGaussianBlur stdDeviation="3.68997"/>
<feComposite in2="hardAlpha" operator="out"/>
<feColorMatrix type="matrix" values="0 0 0 0 0 0 0 0 0 0 0 0 0 0 0 0 0 0 0.25 0"/>
<feBlend mode="normal" in2="BackgroundImageFix" result="effect1_dropShadow_42_316"/>
<feBlend mode="normal" in="SourceGraphic" in2="effect1_dropShadow_42_316" result="shape"/>
</filter>
<filter id="filter11_d_42_316" x="281.784" y="48.7974" width="35.8214" height="45.7479" filterUnits="userSpaceOnUse" color-interpolation-filters="sRGB">
<feFlood flood-opacity="0" result="BackgroundImageFix"/>
<feColorMatrix in="SourceAlpha" type="matrix" values="0 0 0 0 0 0 0 0 0 0 0 0 0 0 0 0 0 0 127 0" result="hardAlpha"/>
<feOffset dy="7.37994"/>
<feGaussianBlur stdDeviation="3.68997"/>
<feComposite in2="hardAlpha" operator="out"/>
<feColorMatrix type="matrix" values="0 0 0 0 0 0 0 0 0 0 0 0 0 0 0 0 0 0 0.25 0"/>
<feBlend mode="normal" in2="BackgroundImageFix" result="effect1_dropShadow_42_316"/>
<feBlend mode="normal" in="SourceGraphic" in2="effect1_dropShadow_42_316" result="shape"/>
</filter>
</defs>
</svg>
